<?xml version="1.0" encoding="UTF-8"?>
<svg xmlns="http://www.w3.org/2000/svg" viewBox="0 0 1701 1701" width="1701" height="1701">
  <path d="M1148 700H1212C1303 700 1378 775 1378 866C1378 957 1303 1032 1212 1032H1128V942H1212C1254 942 1288 908 1288 866C1288 824 1254 790 1212 790H1148V700ZM430 1187H1240C1273 1187 1300 1214 1300 1247C1300 1280 1273 1307 1240 1307H430C397 1307 370 1280 370 1247C370 1214 397 1187 430 1187ZM688 406C653 455 654 515 692 564L731 615C782 682 779 772 724 838L677 895H796L815 867C858 803 860 722 822 657L784 606C753 565 752 511 781 470L836 393L688 406ZM884 332C849 381 850 441 888 490L930 544C981 610 978 699 923 765L869 830H988L1007 803C1050 739 1052 657 1014 593L973 540C942 499 941 446 970 405L1032 319L884 332Z"/>
</svg>
